<svg width="32.000000" height="34.133301" viewBox="0 0 32 34.1333" fill="none" xmlns="http://www.w3.org/2000/svg" xmlns:xlink="http://www.w3.org/1999/xlink">
	<desc>
			Created with Pixso.
	</desc>
	<defs>
		<clipPath id="clip2_332">
			<rect id="icon" width="32.000000" height="34.133335" fill="white"/>
		</clipPath>
	</defs>
	<g clip-path="url(#clip2_332)">
		<path id="path" d="M8 12.8C8 12.9402 8.01282 13.0789 8.03845 13.2163C8.06409 13.3536 8.10193 13.4871 8.15222 13.6165C8.20251 13.7458 8.26416 13.8688 8.33704 13.9852C8.41003 14.1017 8.49292 14.2095 8.58582 14.3086C8.67859 14.4076 8.77966 14.4961 8.88892 14.5739C8.99805 14.6517 9.11328 14.7174 9.23462 14.771C9.35596 14.8246 9.48108 14.8651 9.60986 14.8925C9.73865 14.9197 9.86865 14.9333 10 14.9333C10.1313 14.9333 10.2614 14.9197 10.3901 14.8925C10.5189 14.8651 10.644 14.8246 10.7654 14.771C10.8867 14.7174 11.002 14.6517 11.1111 14.5739C11.2203 14.4961 11.3214 14.4076 11.4142 14.3086C11.5071 14.2095 11.59 14.1017 11.663 13.9852C11.7358 13.8688 11.7975 13.7458 11.8478 13.6165C11.8981 13.4871 11.9359 13.3536 11.9615 13.2163C11.9872 13.0789 12 12.9402 12 12.8C12 12.66 11.9872 12.5212 11.9615 12.3839C11.9359 12.2465 11.8981 12.113 11.8478 11.9836C11.7975 11.8542 11.7358 11.7313 11.663 11.6149C11.59 11.4984 11.5071 11.3906 11.4142 11.2915C11.3214 11.1925 11.2203 11.1041 11.1111 11.0262C11.002 10.9485 10.8867 10.8827 10.7654 10.8291C10.644 10.7755 10.5189 10.735 10.3901 10.7078C10.2614 10.6804 10.1313 10.6667 10 10.6667C9.86865 10.6667 9.73865 10.6804 9.60986 10.7078C9.48108 10.735 9.35596 10.7755 9.23462 10.8291C9.11328 10.8827 8.99805 10.9485 8.88892 11.0262C8.77966 11.1041 8.67859 11.1925 8.58582 11.2915C8.49292 11.3906 8.41003 11.4984 8.33704 11.6149C8.26416 11.7313 8.20251 11.8542 8.15222 11.9836C8.10193 12.113 8.06409 12.2465 8.03845 12.3839C8.01282 12.5212 8 12.66 8 12.8ZM26.334 29.8667L5.66602 29.8667C3.64502 29.8667 2 28.1121 2 25.9563L2 8.17712C2 6.02136 3.64502 4.26672 5.66602 4.26672L26.334 4.26672C28.355 4.26672 30 6.02136 30 8.17712L30 25.9563C30 28.1121 28.355 29.8667 26.334 29.8667ZM5.66602 6.40002C4.74805 6.40002 4 7.19788 4 8.17712L4 25.9563C4 26.9366 4.74805 27.7334 5.66602 27.7334L26.334 27.7334C27.2531 27.7334 28 26.9366 28 25.9563L28 8.17712C28 7.19788 27.2531 6.40002 26.334 6.40002L5.66602 6.40002ZM7 25.6332C6.90198 25.6332 6.802 25.6172 6.703 25.5841C6.17603 25.4092 5.88098 24.8129 6.04504 24.2507C6.11902 23.9968 7.92505 18.0225 11.769 18.1292C12.863 18.158 13.7791 18.4523 14.665 18.7372C15.803 19.1019 16.787 19.4166 18.0909 19.1947C18.73 19.0848 18.994 18.4 19.4449 16.8619C20.04 14.8342 20.939 11.7708 24.903 11.7708C25.4561 11.7708 25.903 12.2485 25.903 12.8374C25.903 13.4261 25.4561 13.9041 24.903 13.9041C22.5291 13.9041 22.007 15.2705 21.353 17.4998C20.9 19.0465 20.334 20.9718 18.407 21.3003C16.6479 21.599 15.2891 21.1627 14.088 20.7798C13.2939 20.5249 12.543 20.2838 11.717 20.2625C11.702 20.2614 11.687 20.2614 11.672 20.2614C9.73401 20.2614 8.33203 23.5905 7.953 24.8833C7.82104 25.3398 7.42603 25.6332 7 25.6332Z" fill-rule="nonzero" fill="#000000" fill-opacity="0.880000"/>
	</g>
</svg>
