<svg width="32.000000" height="32.000000" viewBox="0 0 32 32" fill="none" xmlns="http://www.w3.org/2000/svg" xmlns:xlink="http://www.w3.org/1999/xlink">
	<desc>
			Created with Pixso.
	</desc>
	<defs>
		<clipPath id="clip2_340">
			<rect id="icon" width="32.000000" height="32.000000" fill="white"/>
		</clipPath>
	</defs>
	<g clip-path="url(#clip2_340)">
		<path id="path" d="M24.9449 18.5165L24.9449 5.54248C24.9449 4.44019 24.0513 3.54651 22.949 3.54651L3.98694 3.54651C2.88464 3.54651 1.99097 4.44019 1.99097 5.54248L1.99097 18.5165C1.99097 19.6188 2.88464 20.5125 3.98694 20.5125L5.98291 20.5125L5.98291 25.5024L10.9729 20.5125L22.949 20.5125C24.0511 20.5125 24.9449 19.6188 24.9449 18.5165ZM10.1465 18.5165L7.97888 20.6841L7.97888 18.5165L3.98694 18.5165L3.98694 5.54248L22.949 5.54248L22.949 18.5165L10.1465 18.5165ZM27.939 6.54053L25.943 6.54053L25.943 8.5365L27.939 8.5365L27.939 21.5105L23.947 21.5105L23.947 23.6781L21.7794 21.5105L11.9709 21.5105L11.9709 23.5065L20.9529 23.5065L25.9429 28.4965L25.9429 23.5065L27.939 23.5065C29.0413 23.5065 29.9349 22.6128 29.9349 21.5105L29.9349 8.5365C29.9349 7.4342 29.0411 6.54053 27.939 6.54053Z" fill-rule="nonzero" fill="#000000" fill-opacity="0.880000"/>
	</g>
</svg>
