<svg width="32.000000" height="32.000000" viewBox="0 0 32 32" fill="none" xmlns="http://www.w3.org/2000/svg" xmlns:xlink="http://www.w3.org/1999/xlink">
	<desc>
			Created with Pixso.
	</desc>
	<defs>
		<clipPath id="clip2_336">
			<rect id="icon" width="32.000000" height="32.000000" fill="white"/>
		</clipPath>
	</defs>
	<g clip-path="url(#clip2_336)">
		<path id="path" d="M25.3333 9.33337L32 9.33337L32 12L25.3333 12L25.3333 9.33337ZM22.6666 16L32 16L32 18.6667L22.6666 18.6667L22.6666 16ZM26.6666 22.6667L32 22.6667L32 25.3334L26.6666 25.3334L26.6666 22.6667ZM2.66663 29.3334C2.66663 29.1588 2.6709 28.9844 2.67944 28.8099C2.68799 28.6356 2.70093 28.4615 2.71802 28.2878C2.73511 28.1141 2.75647 27.9409 2.7821 27.7682C2.80774 27.5956 2.83752 27.4236 2.87158 27.2524C2.90564 27.0812 2.94385 26.9109 2.98633 26.7416C3.02869 26.5723 3.0752 26.4041 3.12598 26.2371C3.17664 26.0699 3.23132 25.9043 3.29016 25.7399C3.349 25.5756 3.41174 25.4127 3.47864 25.2515C3.54541 25.0901 3.61609 24.9305 3.6908 24.7728C3.76538 24.615 3.84387 24.4591 3.92615 24.3052C4.00842 24.1511 4.09448 23.9994 4.1842 23.8496C4.27393 23.6998 4.36731 23.5525 4.46423 23.4073C4.56128 23.2621 4.66174 23.1195 4.76575 22.9792C4.86975 22.839 4.97705 22.7014 5.08789 22.5665C5.19861 22.4315 5.31262 22.2994 5.42981 22.17C5.547 22.0408 5.66736 21.9143 5.79077 21.7909C5.91431 21.6675 6.04065 21.5471 6.17004 21.4299C6.29932 21.3126 6.43152 21.1987 6.56641 21.0879C6.70142 20.9772 6.83899 20.8699 6.97913 20.7659C7.11938 20.6619 7.26208 20.5614 7.40723 20.4644C7.55237 20.3674 7.69983 20.274 7.84949 20.1843C7.99927 20.0945 8.15112 20.0085 8.30505 19.9263C8.45898 19.8439 8.61487 19.7655 8.77271 19.6908C8.93054 19.6162 9.09009 19.5454 9.25134 19.4786C9.4126 19.4119 9.57544 19.349 9.73975 19.2903C9.90417 19.2314 10.0698 19.1766 10.2369 19.126C10.4039 19.0753 10.5721 19.0288 10.7415 18.9863C10.9109 18.944 11.0811 18.9058 11.2523 18.8717C11.4236 18.8376 11.5955 18.8077 11.7682 18.7821C11.9408 18.7566 12.114 18.7352 12.2877 18.718C12.4615 18.7009 12.6355 18.6881 12.8099 18.6796C12.9843 18.671 13.1587 18.6667 13.3333 18.6667C13.5078 18.6667 13.6824 18.671 13.8567 18.6796C14.031 18.6881 14.2051 18.7009 14.3788 18.718C14.5525 18.7352 14.7257 18.7566 14.8984 18.7821C15.071 18.8077 15.243 18.8376 15.4143 18.8717C15.5854 18.9058 15.7557 18.944 15.925 18.9863C16.0944 19.0288 16.2626 19.0753 16.4297 19.126C16.5967 19.1766 16.7625 19.2314 16.9268 19.2903C17.0912 19.349 17.2539 19.4119 17.4153 19.4786C17.5765 19.5454 17.7361 19.6162 17.8939 19.6908C18.0516 19.7655 18.2075 19.8439 18.3616 19.9263C18.5155 20.0085 18.6674 20.0945 18.817 20.1843C18.9668 20.274 19.1143 20.3674 19.2594 20.4644C19.4045 20.5614 19.5472 20.6619 19.6874 20.7659C19.8276 20.8699 19.9652 20.9772 20.1001 21.0879C20.2351 21.1987 20.3672 21.3126 20.4966 21.4299C20.626 21.5471 20.7523 21.6675 20.8757 21.7909C20.9991 21.9143 21.1195 22.0408 21.2368 22.17C21.354 22.2994 21.468 22.4315 21.5787 22.5665C21.6895 22.7014 21.7969 22.839 21.9009 22.9792C22.0049 23.1195 22.1053 23.2621 22.2023 23.4072C22.2993 23.5525 22.3927 23.6998 22.4824 23.8496C22.5721 23.9994 22.6582 24.1511 22.7405 24.3052C22.8228 24.4591 22.9012 24.615 22.9758 24.7728C23.0505 24.9305 23.1212 25.0901 23.188 25.2515C23.2548 25.4127 23.3176 25.5756 23.3765 25.7399C23.4352 25.9043 23.49 26.0699 23.5406 26.2371C23.5913 26.4041 23.6378 26.5723 23.6803 26.7416C23.7227 26.9109 23.761 27.0812 23.795 27.2524C23.8291 27.4236 23.8589 27.5956 23.8845 27.7682C23.9102 27.9409 23.9315 28.1141 23.9486 28.2878C23.9657 28.4615 23.9785 28.6356 23.9871 28.8099C23.9957 28.9844 24 29.1588 24 29.3334L21.3333 29.3334C21.3333 29.0714 21.3204 28.8099 21.2948 28.5492C21.269 28.2885 21.2307 28.0297 21.1796 27.7727C21.1284 27.5156 21.0648 27.2618 20.9888 27.0111C20.9127 26.7604 20.8246 26.5139 20.7244 26.2719C20.624 26.0298 20.5122 25.7932 20.3887 25.5623C20.2651 25.3312 20.1306 25.1067 19.9851 24.8888C19.8395 24.6709 19.6836 24.4608 19.5173 24.2582C19.3512 24.0557 19.1754 23.8618 18.9901 23.6765C18.8049 23.4912 18.611 23.3156 18.4084 23.1493C18.2059 22.983 17.9957 22.8271 17.7778 22.6816C17.5601 22.536 17.3356 22.4015 17.1045 22.278C16.8734 22.1545 16.6368 22.0426 16.3948 21.9424C16.1527 21.842 15.9062 21.7539 15.6555 21.6779C15.4048 21.6018 15.151 21.5382 14.894 21.4871C14.6371 21.436 14.3782 21.3976 14.1174 21.3719C13.8567 21.3462 13.5953 21.3334 13.3333 21.3334C13.0713 21.3334 12.8099 21.3462 12.5492 21.3719C12.2885 21.3976 12.0295 21.436 11.7726 21.4871C11.5156 21.5382 11.2617 21.6018 11.011 21.6779C10.7603 21.7539 10.5139 21.842 10.2719 21.9424C10.0298 22.0426 9.79321 22.1545 9.56213 22.278C9.33105 22.4015 9.10657 22.536 8.88867 22.6816C8.6709 22.8271 8.46069 22.983 8.25818 23.1493C8.05566 23.3156 7.86169 23.4912 7.67639 23.6765C7.49121 23.8618 7.31543 24.0557 7.14917 24.2582C6.98303 24.4608 6.82715 24.6709 6.68152 24.8888C6.53601 25.1067 6.40149 25.3312 6.27795 25.5623C6.15442 25.7932 6.04248 26.0298 5.94226 26.2719C5.84204 26.5139 5.75378 26.7604 5.67773 27.0111C5.60168 27.2618 5.53809 27.5156 5.48706 27.7727C5.43591 28.0297 5.39746 28.2885 5.37183 28.5492C5.34619 28.8099 5.33325 29.0714 5.33325 29.3334L2.66663 29.3334ZM13.3333 17.3334C8.91333 17.3334 5.33325 13.7534 5.33325 9.33337C5.33325 4.91333 8.91333 1.33337 13.3333 1.33337C17.7533 1.33337 21.3333 4.91333 21.3333 9.33337C21.3333 13.7534 17.7533 17.3334 13.3333 17.3334ZM13.3333 14.6667C16.2799 14.6667 18.6666 12.28 18.6666 9.33337C18.6666 6.38672 16.2799 4 13.3333 4C10.3866 4 8 6.38672 8 9.33337C8 12.28 10.3866 14.6667 13.3333 14.6667Z" fill-rule="nonzero" fill="#000000" fill-opacity="0.880000"/>
	</g>
</svg>
