<svg width="12.000000" height="12.000000" viewBox="0 0 12 12" fill="none" xmlns="http://www.w3.org/2000/svg" xmlns:xlink="http://www.w3.org/1999/xlink">
	<desc>
			Created with Pixso.
	</desc>
	<defs>
		<clipPath id="clip2_100">
			<rect id="copy" width="12.000000" height="12.000000" fill="white"/>
		</clipPath>
	</defs>
	<g clip-path="url(#clip2_100)">
		<path id="path" d="M6.85715 4.28577C6.88522 4.28577 6.91322 4.28711 6.94116 4.28992C6.9691 4.2926 6.99683 4.29675 7.02437 4.30225C7.0519 4.30762 7.0791 4.31445 7.10596 4.32263C7.13283 4.33081 7.15923 4.34021 7.18516 4.35095C7.2111 4.36169 7.23644 4.37366 7.2612 4.38696C7.28596 4.40015 7.31001 4.41455 7.33335 4.43018C7.35669 4.4458 7.37921 4.46252 7.40091 4.48035C7.42262 4.49805 7.44339 4.51697 7.46324 4.53674C7.48309 4.55664 7.50191 4.57739 7.51973 4.59912C7.53754 4.62085 7.55424 4.64331 7.56983 4.66663C7.58543 4.69006 7.59985 4.71411 7.61308 4.73877C7.62631 4.76355 7.6383 4.78894 7.64904 4.81482C7.65979 4.84082 7.66924 4.86719 7.67738 4.89404C7.68553 4.9209 7.69234 4.94812 7.69781 4.97571C7.70329 5.00317 7.70741 5.03088 7.71016 5.05884C7.71291 5.08679 7.71429 5.11475 7.71429 5.14282L7.71429 9.71436C7.71429 9.74243 7.71291 9.77039 7.71016 9.79834C7.70741 9.82629 7.70329 9.854 7.69781 9.88147C7.69234 9.90906 7.68553 9.93628 7.67738 9.96313C7.66924 9.98999 7.65978 10.0164 7.64904 10.0424C7.6383 10.0682 7.62631 10.0936 7.61308 10.1184C7.59985 10.1431 7.58543 10.1671 7.56983 10.1906C7.55424 10.2139 7.53754 10.2363 7.51973 10.2581C7.50191 10.2798 7.48309 10.3005 7.46323 10.3204C7.44339 10.3402 7.42262 10.3591 7.40091 10.3768C7.37921 10.3947 7.35669 10.4114 7.33335 10.427C7.31001 10.4426 7.28596 10.457 7.2612 10.4702C7.23644 10.4835 7.2111 10.4955 7.18516 10.5062C7.15923 10.517 7.13283 10.5264 7.10596 10.5345C7.0791 10.5427 7.0519 10.5494 7.02437 10.5549C6.99683 10.5604 6.9691 10.5646 6.94116 10.5673C6.91322 10.5701 6.88522 10.5714 6.85715 10.5714L2.28571 10.5714C2.25764 10.5714 2.22964 10.5701 2.2017 10.5673C2.17377 10.5646 2.14603 10.5604 2.1185 10.5549C2.09097 10.5494 2.06377 10.5427 2.0369 10.5345C2.01004 10.5264 1.98363 10.517 1.9577 10.5062C1.93176 10.4955 1.90642 10.4835 1.88166 10.4702C1.8569 10.457 1.83286 10.4426 1.80952 10.427C1.78617 10.4114 1.76365 10.3947 1.74195 10.3768C1.72025 10.3591 1.69948 10.3402 1.67963 10.3204C1.65977 10.3005 1.64095 10.2798 1.62314 10.2581C1.60532 10.2363 1.58862 10.2139 1.57303 10.1906C1.55743 10.1671 1.54301 10.1431 1.52979 10.1184C1.51655 10.0936 1.50456 10.0682 1.49382 10.0424C1.48308 10.0164 1.47363 9.98999 1.46548 9.96313C1.45734 9.93628 1.45052 9.90906 1.44505 9.88147C1.43957 9.854 1.43546 9.82629 1.4327 9.79834C1.42995 9.77039 1.42857 9.74243 1.42857 9.71436L1.42857 5.14282C1.42857 5.11475 1.42995 5.08679 1.4327 5.05884C1.43546 5.03088 1.43957 5.00317 1.44505 4.97571C1.45052 4.94812 1.45734 4.9209 1.46548 4.89404C1.47363 4.86719 1.48308 4.84082 1.49382 4.81482C1.50456 4.78894 1.51655 4.76355 1.52979 4.73877C1.54301 4.71411 1.55743 4.69006 1.57303 4.66663C1.58862 4.64331 1.60532 4.62085 1.62314 4.59912C1.64095 4.57739 1.65977 4.55664 1.67963 4.53674C1.69948 4.51697 1.72025 4.49805 1.74195 4.48035C1.76365 4.46252 1.78617 4.4458 1.80952 4.43018C1.83286 4.41455 1.8569 4.40015 1.88166 4.38696C1.90642 4.37366 1.93177 4.36169 1.9577 4.35095C1.98363 4.34021 2.01004 4.33081 2.0369 4.32263C2.06377 4.31445 2.09097 4.30762 2.1185 4.30225C2.14603 4.29675 2.17377 4.2926 2.2017 4.28992C2.22964 4.28711 2.25764 4.28577 2.28571 4.28577L6.85715 4.28577ZM6.85715 5.14282L2.28571 5.14282L2.28571 9.71436L6.85715 9.71436L6.85715 5.14282ZM6 7.71436L6 8.57141L3.14286 8.57141L3.14286 7.71436L6 7.71436ZM9.71429 1.42859C9.74236 1.42859 9.77036 1.42993 9.7983 1.43274C9.82624 1.43542 9.85397 1.43958 9.88151 1.44507C9.90904 1.45056 9.93624 1.4574 9.9631 1.46545C9.98997 1.47363 10.0164 1.48303 10.0423 1.49377C10.0682 1.50464 10.0936 1.5166 10.1183 1.52979C10.1431 1.54309 10.1672 1.5575 10.1905 1.573C10.2138 1.58862 10.2364 1.60535 10.2581 1.62317C10.2798 1.64099 10.3005 1.65979 10.3204 1.67969C10.3402 1.69946 10.3591 1.72021 10.3769 1.74194C10.3947 1.76367 10.4114 1.78613 10.427 1.80957C10.4426 1.83289 10.457 1.85693 10.4702 1.88171C10.4835 1.90649 10.4954 1.93176 10.5062 1.95776C10.5169 1.98364 10.5264 2.01001 10.5345 2.03687C10.5427 2.06372 10.5495 2.09094 10.555 2.11853C10.5604 2.146 10.5646 2.17383 10.5673 2.20166C10.5701 2.22961 10.5714 2.25769 10.5714 2.28577L10.5714 6.85718C10.5714 6.88525 10.5701 6.91321 10.5673 6.94116C10.5646 6.96912 10.5604 6.99683 10.555 7.02441C10.5495 7.05188 10.5427 7.0791 10.5345 7.10596C10.5264 7.13281 10.5169 7.15918 10.5062 7.18518C10.4954 7.21106 10.4835 7.23645 10.4702 7.26123C10.457 7.28601 10.4426 7.31006 10.427 7.33337C10.4114 7.35669 10.3947 7.37927 10.3769 7.40088C10.3591 7.42261 10.3402 7.44336 10.3204 7.46326C10.3005 7.48315 10.2798 7.50195 10.2581 7.51978C10.2364 7.5376 10.2138 7.5542 10.1905 7.56982C10.1672 7.58545 10.1431 7.59985 10.1183 7.61304C10.0936 7.62634 10.0682 7.63831 10.0423 7.64905C10.0164 7.65979 9.98997 7.66919 9.9631 7.67737C9.93624 7.68555 9.90904 7.69238 9.88151 7.69788C9.85397 7.70337 9.82624 7.7074 9.7983 7.71021C9.77036 7.71289 9.74236 7.71436 9.71429 7.71436L8.28572 7.71436L8.28572 6.85718L9.71429 6.85718L9.71429 2.28577L5.14286 2.28577L5.14286 3.71436L4.28572 3.71436L4.28572 2.28577C4.28572 2.25769 4.28709 2.22961 4.28985 2.20166C4.29259 2.17383 4.29671 2.146 4.30219 2.11853C4.30766 2.09094 4.31448 2.06372 4.32262 2.03687C4.33077 2.01001 4.34022 1.98364 4.35096 1.95776C4.36171 1.93176 4.3737 1.90649 4.38692 1.88171C4.40016 1.85693 4.41457 1.83289 4.43018 1.80957C4.44577 1.78613 4.46247 1.76367 4.48028 1.74194C4.49809 1.72021 4.51692 1.69946 4.53677 1.67969C4.55662 1.65979 4.57739 1.64099 4.59909 1.62317C4.6208 1.60535 4.64332 1.58862 4.66666 1.573C4.68999 1.5575 4.71405 1.54309 4.73881 1.52979C4.76357 1.5166 4.78891 1.50464 4.81484 1.49377C4.84078 1.48303 4.86718 1.47363 4.89404 1.46545C4.92091 1.4574 4.9481 1.45056 4.97564 1.44507C5.00317 1.43958 5.03091 1.43542 5.05885 1.43274C5.08678 1.42993 5.11479 1.42859 5.14286 1.42859L9.71429 1.42859ZM6 6.28577L6 7.14282L3.14286 7.14282L3.14286 6.28577L6 6.28577Z" fill-rule="nonzero" fill="#000000" fill-opacity="0.380000"/>
	</g>
</svg>
