<svg width="24.000000" height="24.000000" viewBox="0 0 24 24" fill="none" xmlns="http://www.w3.org/2000/svg" xmlns:xlink="http://www.w3.org/1999/xlink">
	<desc>
			Created with Pixso.
	</desc>
	<defs>
		<clipPath id="clip38_212">
			<rect id="more" width="24.000000" height="24.000000" fill="white"/>
		</clipPath>
	</defs>
	<g clip-path="url(#clip38_212)">
		<path id="path" d="M19.2261 13.5726L3.41931 13.5726C2.81348 13.5726 2.32269 13.0428 2.32269 12.389L2.32269 11.7468C2.32269 11.0929 2.81348 10.5632 3.41931 10.5632L19.2261 10.5632C19.8319 10.5632 20.3227 11.0929 20.3227 11.7468L20.3227 12.389C20.3227 13.0428 19.8319 13.5726 19.2261 13.5726ZM19.2261 19.5702L3.41931 19.5702C2.81348 19.5702 2.32269 19.0405 2.32269 18.3866L2.32269 17.7445C2.32269 17.0906 2.81348 16.5609 3.41931 16.5609L19.2261 16.5609C19.8319 16.5609 20.3227 17.0906 20.3227 17.7445L20.3227 18.3866C20.3227 19.0405 19.8319 19.5702 19.2261 19.5702ZM19.2261 7.57495L3.41931 7.57495C2.81348 7.57495 2.32269 7.04529 2.32269 6.39136L2.32269 5.74915C2.32269 5.09521 2.81348 4.56555 3.41931 4.56555L19.2261 4.56555C19.8319 4.56555 20.3227 5.09521 20.3227 5.74915L20.3227 6.39136C20.3227 7.04529 19.8319 7.57495 19.2261 7.57495Z" fill-rule="nonzero" fill="#000000" fill-opacity="0.380000"/>
	</g>
</svg>
