<svg width="32.000000" height="32.000000" viewBox="0 0 32 32" fill="none" xmlns="http://www.w3.org/2000/svg" xmlns:xlink="http://www.w3.org/1999/xlink">
	<desc>
			Created with Pixso.
	</desc>
	<defs>
		<clipPath id="clip2_328">
			<rect id="icon" width="32.000000" height="32.000000" fill="white"/>
		</clipPath>
	</defs>
	<g clip-path="url(#clip2_328)">
		<path id="path" d="M16 20C13.7939 20 12 18.2061 12 16C12 13.7939 13.7939 12 16 12C18.2061 12 20 13.7939 20 16C20 18.2061 18.2061 20 16 20ZM16 10C15.8035 10 15.6074 10.0096 15.4119 10.0289C15.2163 10.0481 15.0222 10.0769 14.8295 10.1152C14.6367 10.1536 14.4463 10.2013 14.2583 10.2583C14.0702 10.3154 13.8855 10.3815 13.7039 10.4567C13.5223 10.532 13.345 10.6158 13.1716 10.7085C12.9983 10.8011 12.83 10.902 12.6666 11.0112C12.5032 11.1204 12.3456 11.2373 12.1936 11.3619C12.0417 11.4866 11.8964 11.6184 11.7573 11.7573C11.6184 11.8964 11.4866 12.0417 11.3619 12.1936C11.2373 12.3456 11.1204 12.5032 11.0112 12.6666C10.902 12.83 10.8011 12.9983 10.7085 13.1716C10.6158 13.345 10.532 13.5223 10.4567 13.7039C10.3815 13.8855 10.3154 14.0702 10.2583 14.2583C10.2013 14.4463 10.1536 14.6367 10.1152 14.8295C10.0769 15.0222 10.0481 15.2163 10.0289 15.4119C10.0096 15.6074 10 15.8035 10 16C10 16.1965 10.0096 16.3926 10.0289 16.5881C10.0481 16.7837 10.0769 16.9778 10.1152 17.1705C10.1536 17.3633 10.2013 17.5537 10.2583 17.7417C10.3154 17.9298 10.3815 18.1145 10.4567 18.2961C10.532 18.4777 10.6158 18.655 10.7085 18.8284C10.8011 19.0017 10.902 19.17 11.0112 19.3334C11.1204 19.4968 11.2373 19.6544 11.3619 19.8064C11.4866 19.9583 11.6184 20.1036 11.7573 20.2427C11.8964 20.3816 12.0417 20.5134 12.1936 20.6381C12.3456 20.7627 12.5032 20.8796 12.6666 20.9888C12.83 21.098 12.9983 21.1989 13.1716 21.2915C13.345 21.3842 13.5223 21.468 13.7039 21.5433C13.8855 21.6185 14.0702 21.6846 14.2583 21.7417C14.4463 21.7987 14.6367 21.8463 14.8295 21.8848C15.0222 21.9231 15.2163 21.9519 15.4119 21.9711C15.6074 21.9904 15.8035 22 16 22C16.1965 22 16.3926 21.9904 16.5881 21.9711C16.7837 21.9519 16.9778 21.9231 17.1705 21.8848C17.3633 21.8463 17.5537 21.7987 17.7417 21.7417C17.9298 21.6846 18.1145 21.6185 18.2961 21.5433C18.4777 21.468 18.655 21.3842 18.8284 21.2915C19.0017 21.1989 19.17 21.098 19.3334 20.9888C19.4968 20.8796 19.6544 20.7627 19.8064 20.6381C19.9583 20.5134 20.1036 20.3816 20.2427 20.2427C20.3816 20.1036 20.5134 19.9583 20.6381 19.8064C20.7627 19.6544 20.8796 19.4968 20.9888 19.3334C21.098 19.17 21.1989 19.0017 21.2915 18.8284C21.3842 18.655 21.468 18.4777 21.5433 18.2961C21.6185 18.1145 21.6846 17.9298 21.7417 17.7417C21.7987 17.5537 21.8463 17.3633 21.8848 17.1705C21.9231 16.9778 21.9519 16.7837 21.9711 16.5881C21.9904 16.3926 22 16.1965 22 16C22 15.8035 21.9904 15.6074 21.9711 15.4119C21.9519 15.2163 21.9231 15.0222 21.8848 14.8295C21.8463 14.6367 21.7987 14.4463 21.7417 14.2583C21.6846 14.0702 21.6185 13.8855 21.5433 13.7039C21.468 13.5223 21.3842 13.345 21.2915 13.1716C21.1989 12.9983 21.098 12.83 20.9888 12.6666C20.8796 12.5032 20.7627 12.3456 20.6381 12.1936C20.5134 12.0417 20.3816 11.8964 20.2427 11.7573C20.1036 11.6184 19.9583 11.4866 19.8064 11.3619C19.6544 11.2373 19.4968 11.1204 19.3334 11.0112C19.17 10.902 19.0017 10.8011 18.8284 10.7085C18.655 10.6158 18.4777 10.532 18.2961 10.4567C18.1145 10.3815 17.9298 10.3154 17.7417 10.2583C17.5537 10.2013 17.3633 10.1536 17.1705 10.1152C16.9778 10.0769 16.7837 10.0481 16.5881 10.0289C16.3926 10.0096 16.1965 10 16 10Z" fill-rule="nonzero" fill="#000000" fill-opacity="0.880000"/>
		<path id="path" d="M21.6631 22.986C21.2651 23.3082 20.8431 23.5948 20.397 23.8459C20.359 23.866 20.323 23.892 20.2841 23.913C19.9398 24.0966 19.5852 24.2568 19.22 24.394L18.609 26.675L18.319 27.756C18.301 27.76 18.2831 27.766 18.264 27.7679L17.991 27.819C17.881 27.839 17.769 27.853 17.6581 27.869C17.1083 27.9492 16.5555 27.9883 16 27.986C15.837 27.986 15.673 27.9821 15.51 27.976L15.24 27.9611C14.9395 27.9425 14.6401 27.9119 14.342 27.869C14.2321 27.853 14.121 27.839 14.01 27.819C13.9188 27.8033 13.8279 27.7866 13.7371 27.769L13.682 27.756L13.392 26.676L12.78 24.394C12.2585 24.193 11.7601 23.9453 11.285 23.651C10.9551 23.4497 10.6394 23.228 10.338 22.986L8.05798 23.597L6.97803 23.887L6.94104 23.844C6.87939 23.7751 6.81909 23.7051 6.76001 23.634C6.68799 23.547 6.61902 23.457 6.54907 23.368C6.36157 23.1321 6.18518 22.8881 6.02002 22.636C5.96997 22.563 5.92297 22.4871 5.875 22.412C5.69849 22.1366 5.53516 21.8536 5.38501 21.563C5.34326 21.4834 5.30225 21.4034 5.26196 21.323C5.21399 21.226 5.16602 21.129 5.12097 21.031C5.04053 20.8556 4.96448 20.6782 4.89307 20.499C4.85107 20.395 4.80908 20.291 4.76904 20.187L4.67603 19.923L4.66003 19.87L5.44702 19.083L7.12097 17.407C7.05212 16.9797 7.01379 16.5497 7.00598 16.1169C7.00598 16.077 7 16.0391 7 16C7 15.96 7.00598 15.923 7.00598 15.8831C7.01379 15.4503 7.05212 15.0203 7.12097 14.593L5.44702 12.917L4.66003 12.13C4.69507 12.0239 4.73145 11.9182 4.76904 11.813C4.80908 11.708 4.85107 11.604 4.89307 11.499C5.16174 10.8315 5.48914 10.1942 5.875 9.58704L6.021 9.36096C6.18738 9.11072 6.3634 8.86743 6.54907 8.63098C6.61902 8.54199 6.68799 8.453 6.75903 8.36597C6.81897 8.29602 6.87903 8.22595 6.94104 8.15601L6.97803 8.11304L8.05798 8.40295L10.338 9.01306C10.637 8.77002 10.9551 8.55298 11.285 8.34802L11.412 8.271C11.8489 8.01013 12.3049 7.78845 12.78 7.60596L13.392 5.32397L13.682 4.24402L13.7371 4.23096C13.827 4.21399 13.917 4.19604 14.009 4.18103C14.119 4.16199 14.233 4.146 14.345 4.13098C14.535 4.104 14.725 4.08105 14.918 4.06201C15.1157 4.04443 15.3137 4.0321 15.512 4.02502C15.6741 4.01794 15.837 4.01306 16 4.01306C16.163 4.01306 16.327 4.01794 16.489 4.02502C16.6874 4.0321 16.8854 4.04443 17.083 4.06201C17.2731 4.07996 17.465 4.104 17.655 4.13196C17.7681 4.146 17.88 4.16199 17.9921 4.18005L18.264 4.23096L18.319 4.24304L18.609 5.32397L19.219 7.60498C19.5851 7.74597 19.943 7.901 20.2841 8.08606C20.323 8.10706 20.359 8.13306 20.397 8.15405C20.844 8.40601 21.267 8.69202 21.6631 9.01404L23.943 8.40198L25.022 8.11304L25.0601 8.15503C25.12 8.22498 25.182 8.29504 25.24 8.36597C25.312 8.45203 25.38 8.54199 25.4501 8.63C25.5701 8.78198 25.686 8.93604 25.798 9.09399C25.86 9.18201 25.92 9.27197 25.98 9.36096L26.126 9.58704C26.3507 9.93884 26.5551 10.3022 26.739 10.677C26.8717 10.9469 26.9944 11.2212 27.1071 11.5C27.149 11.604 27.192 11.708 27.2321 11.814C27.264 11.901 27.2941 11.988 27.324 12.076C27.3301 12.094 27.334 12.1121 27.3411 12.13L26.5541 12.917L24.879 14.592C24.939 14.969 24.9761 15.353 24.988 15.745C24.99 15.83 25 15.915 25 16C25 16.085 24.99 16.17 24.988 16.255C24.9758 16.6414 24.9392 17.0254 24.8781 17.407L26.5541 19.083L27.3411 19.87L27.324 19.923C27.2941 20.011 27.264 20.098 27.2321 20.1851C27.192 20.291 27.15 20.395 27.1071 20.5C26.9949 20.7791 26.8722 21.0533 26.739 21.323C26.626 21.5497 26.5066 21.7729 26.381 21.993C26.2991 22.135 26.213 22.274 26.126 22.413C26.078 22.4871 26.03 22.563 25.9811 22.636C25.8156 22.8884 25.6389 23.1328 25.451 23.369C25.381 23.459 25.311 23.547 25.241 23.6331C25.181 23.705 25.121 23.774 25.0601 23.844C25.048 23.859 25.035 23.8719 25.022 23.886L23.942 23.597L21.6631 22.986ZM12.1281 27.34C12.046 27.312 11.963 27.286 11.8821 27.256L11.7781 27.218L11.6741 27.178C11.827 27.238 11.9821 27.29 12.137 27.342L12.1281 27.34ZM8.396 25.266L8.31299 25.196C8.24597 25.139 8.18103 25.08 8.11499 25.022C8.23596 25.1299 8.35925 25.2349 8.48499 25.337L8.396 25.266ZM27.889 17.589L27.8831 17.584L27.88 17.58L26.967 16.667C26.98 16.4449 27 16.225 27 16C27 15.774 26.98 15.554 26.967 15.332L27.879 14.42L27.8831 14.416L27.889 14.41L29.599 12.7C29.448 12.0894 29.2563 11.4916 29.024 10.907C28.77 10.26 28.483 9.62 28.124 9C27.765 8.38 27.3561 7.81006 26.923 7.26697C26.5326 6.77368 26.111 6.30859 25.6581 5.87195L23.322 6.49805L23.313 6.50098L23.308 6.50195L22.0751 6.83203C21.6985 6.58508 21.3081 6.36243 20.9041 6.16406L20.572 4.92395L20.5701 4.91699L20.568 4.91003L19.942 2.57202C19.3376 2.39795 18.7242 2.26526 18.1021 2.17395C17.4058 2.06311 16.7051 2.00513 16 2C15.2841 2 14.5861 2.06995 13.899 2.17395C13.271 2.26904 12.656 2.39697 12.0591 2.57202L11.433 4.90796L11.4301 4.91699L11.4291 4.922L11.0961 6.16394C10.692 6.36597 10.2991 6.58496 9.92505 6.83398L8.69397 6.50403L8.68701 6.50195L8.68005 6.49902L6.34302 5.87195C5.89197 6.302 5.47302 6.77197 5.078 7.26697C4.64404 7.81006 4.23401 8.38 3.87598 9C3.51807 9.62 3.22998 10.26 2.97607 10.907C2.74402 11.4918 2.552 12.0895 2.40002 12.7L4.10999 14.41L4.11707 14.417L4.12 14.421L5.03308 15.334C5.02002 15.5551 5 15.775 5 16C5 16.225 5.02002 16.444 5.03406 16.666L4.12207 17.578L4.11804 17.583L4.11206 17.589L2.40002 19.3C2.547 19.9041 2.74402 20.502 2.97498 21.092C3.229 21.739 3.51697 22.38 3.875 23C4.23303 23.62 4.64307 24.1899 5.07703 24.7321C5.47302 25.228 5.89099 25.697 6.34204 26.127L8.677 25.501L8.68604 25.499L8.69104 25.4969L9.92297 25.167C10.298 25.415 10.691 25.6331 11.095 25.835L11.428 27.076L11.428 27.083L11.431 27.09L12.058 29.427C12.655 29.6021 13.27 29.731 13.8981 29.825C14.5936 29.9362 15.2936 29.9945 15.998 30C16.7161 30 17.4131 29.9301 18.1011 29.825C18.7234 29.7341 19.3368 29.6016 19.941 29.427L20.567 27.0909L20.569 27.083L20.571 27.077L20.9031 25.837C21.307 25.634 21.7001 25.415 22.073 25.167L23.306 25.4969L23.312 25.499L23.319 25.501L25.657 26.127C26.1071 25.697 26.526 25.228 26.922 24.7321C27.355 24.189 27.766 23.62 28.124 23C28.4821 22.38 28.769 21.74 29.0231 21.092C29.255 20.502 29.452 19.905 29.599 19.3L27.889 17.589Z" fill-rule="nonzero" fill="#000000" fill-opacity="0.880000"/>
	</g>
</svg>
