<svg width="32.000000" height="32.000000" viewBox="0 0 32 32" fill="none" xmlns="http://www.w3.org/2000/svg" xmlns:xlink="http://www.w3.org/1999/xlink">
	<desc>
			Created with Pixso.
	</desc>
	<defs>
		<clipPath id="clip71_617">
			<rect id="people" width="32.000000" height="32.000000" fill="white"/>
		</clipPath>
	</defs>
	<g clip-path="url(#clip71_617)">
		<path id="path" d="M18.8296 22.1111C13.9291 22.1111 9.96899 17.9521 9.96899 12.8055C9.96899 7.65894 13.9291 3.5 18.8296 3.5C23.7301 3.5 27.6901 7.65894 27.6901 12.8055C27.6901 17.9521 23.7301 22.1111 18.8296 22.1111ZM18.8296 5.57947C15.0181 5.57947 11.949 8.80261 11.949 12.8055C11.949 16.8085 15.0181 20.0316 18.8296 20.0316C22.641 20.0316 25.7101 16.8085 25.7101 12.8055C25.7101 8.80261 22.641 5.57947 18.8296 5.57947ZM8.979 20.8114C8.88 20.8114 8.78101 20.8114 8.68201 20.7595C5.76147 19.7197 3.78149 16.8605 3.78149 13.6373C3.78149 10.9341 5.16748 8.43872 7.39502 7.08704C7.89001 6.82715 8.48401 6.98303 8.73145 7.50293C8.979 8.02283 8.83044 8.64661 8.33545 8.90662C6.70203 9.89429 5.71204 11.6619 5.71204 13.6373C5.71204 15.9767 7.14746 18.0562 9.22656 18.7839C9.72156 18.9399 10.0186 19.5638 9.87 20.0836C9.771 20.4995 9.375 20.8114 8.979 20.8114ZM28.9771 29.4932C28.7296 29.4932 28.4326 29.3892 28.2346 29.1813C25.7595 26.426 22.3936 24.9183 18.78 24.9183C15.1665 24.9183 11.8005 26.426 9.32556 29.1813C8.92944 29.5972 8.33545 29.5972 7.93945 29.2333C7.54346 28.8694 7.54346 28.1935 7.89001 27.7776C10.761 24.6064 14.6221 22.8389 18.78 22.8389C22.9381 22.8389 26.7991 24.6064 29.67 27.7776C30.066 28.1935 30.0166 28.8694 29.6206 29.2333C29.472 29.3892 29.2246 29.4932 28.9771 29.4932ZM2.93994 26.8938C2.6925 26.8938 2.44495 26.7899 2.24695 26.6339C1.85095 26.218 1.85095 25.5942 2.19751 25.1783C4.07849 23.0989 6.60303 21.7472 9.32556 21.3833C9.87 21.3313 10.365 21.6952 10.4146 22.2671C10.464 22.8389 10.1176 23.3588 9.573 23.4108C7.29602 23.7227 5.21704 24.8663 3.63293 26.5819C3.4845 26.7899 3.23694 26.8938 2.93994 26.8938Z" fill-rule="nonzero" fill="#000000" fill-opacity="0.880000"/>
	</g>
</svg>
