<svg width="32.000000" height="32.000000" viewBox="0 0 32 32" fill="none" xmlns="http://www.w3.org/2000/svg" xmlns:xlink="http://www.w3.org/1999/xlink">
    <desc>
            Created with Pixso.
    </desc>
    <defs>
        <clipPath id="clip2_344">
            <rect id="icon" width="32.000000" height="32.000000" fill="white"/>
        </clipPath>
    </defs>
    <g clip-path="url(#clip2_344)">
        <path id="path" d="M3 15C2.69995 15 2.3999 14.9 2.19995 14.6C1.79993 14.2001 1.8999 13.5 2.29993 13.2001L14.1 3.5C15.2 2.70007 16.7999 2.70007 17.7999 3.5L29.6 13.1C30 13.4 30.1 14.1 29.7 14.5C29.2999 14.9 28.7 15 28.2999 14.6L16.6 5.20007C16.2999 5 15.7 5 15.3999 5.20007L3.59998 14.8C3.3999 15 3.19995 15 3 15ZM25.5 29L19 29C18.3999 29 18 28.6 18 28L18 23.3C18 22.6 16.7999 21.9 15.8999 21.9C15 21.9 13.8999 22.5 13.8999 23.3L13.8999 28C13.8999 28.6 13.5 29 12.8999 29L6.59998 29C5.09998 29 4 27.9 4 26.5L4 17C4 16.4 4.3999 16 5 16C5.59998 16 6 16.4 6 17L6 26.5C6 26.8 6.19995 27 6.59998 27L12 27L12 23.3C12 21.3 14.1 19.9 16 19.9C17.8999 19.9 20.1 21.3 20.1 23.3L20.1 27L25.6 27C25.8999 27 26.1 27 26.1 26.4L26.1 17C26.1 16.4 26.5 16 27.1 16C27.7 16 28.1 16.4 28.1 17L28.1 26.5C28 28 27 29 25.5 29Z" fill-rule="nonzero" fill="#000000" fill-opacity="0.880000"/>
    </g>
</svg>
