<svg width="24.000000" height="24.000000" viewBox="0 0 24 24" fill="none" xmlns="http://www.w3.org/2000/svg" xmlns:xlink="http://www.w3.org/1999/xlink">
	<desc>
			Created with Pixso.
	</desc>
	<defs>
		<clipPath id="clip38_245">
			<rect id="toggle" width="24.000000" height="24.000000" fill="white"/>
		</clipPath>
	</defs>
	<g clip-path="url(#clip38_245)">
		<path id="path" d="M19.2487 5.56116L15.4745 3.02698C15.368 2.95605 15.2252 3.03308 15.2252 3.16272L15.2252 4.79956L9.43433 4.79956C5.88135 4.79956 3 7.70239 3 11.2819L3 12.5784C3 13.5082 3.19507 14.3934 3.54492 15.1915C3.58514 15.2848 3.69769 15.3171 3.78217 15.2625L5.70038 13.9741C5.76074 13.9336 5.78687 13.8586 5.76477 13.7877C5.64008 13.4028 5.57574 12.9956 5.57574 12.5784L5.57574 11.2819C5.57574 10.2427 5.97791 9.26624 6.70575 8.53088C7.43365 7.79761 8.40283 7.39246 9.43433 7.39246L15.2252 7.39246L15.2252 9.03943C15.2252 9.16907 15.368 9.24597 15.4745 9.17505L19.2466 6.64087C19.6307 6.38367 19.6307 5.81848 19.2487 5.56116ZM4.75336 18.4388L8.52545 20.973C8.63202 21.0439 8.77478 20.9669 8.77478 20.8373L8.77478 19.2004L14.5657 19.2004C18.1187 19.2004 21 16.2976 21 12.7181L21 11.4216C21 10.4918 20.8049 9.60657 20.4551 8.80847C20.4149 8.71521 20.3023 8.68286 20.2178 8.73755L18.3016 10.0259C18.2413 10.0664 18.2151 10.1414 18.2372 10.2123C18.3619 10.5972 18.4263 11.0044 18.4263 11.4216L18.4263 12.7181C18.4263 13.7573 18.0241 14.7338 17.2963 15.4691C16.5663 16.2045 15.5972 16.6075 14.5657 16.6075L8.77478 16.6075L8.77478 14.9606C8.77478 14.8309 8.63202 14.754 8.52545 14.825L4.75336 17.3591C4.37335 17.6163 4.37335 18.1815 4.75336 18.4388Z" fill-rule="nonzero" fill="#000000" fill-opacity="0.380000"/>
	</g>
</svg>
