<svg width="87.483093" height="87.685730" viewBox="0 0 87.4831 87.6857" fill="none" xmlns="http://www.w3.org/2000/svg" xmlns:xlink="http://www.w3.org/1999/xlink">
	<desc>
			Created with Pixso.
	</desc>
	<defs/>
	<path id="path" d="M43.743 0C19.6696 0 0 19.7122 0 43.8429C0 67.9705 19.6694 87.6857 43.743 87.6857C67.8137 87.6857 87.4831 67.9707 87.4831 43.8429C87.4832 19.7122 67.9222 0 43.743 0ZM43.743 83.3755C22.033 83.3755 4.29877 65.707 4.29877 43.8428C4.29877 21.9726 22.033 4.30707 43.743 4.30707C65.4505 4.30707 83.1846 22.0811 83.1846 43.8428C83.1846 65.6016 65.556 83.3755 43.743 83.3755ZM53.2025 53.3193C50.0712 51.2926 51.6555 46.6771 51.8039 46.3404C54.0532 44.4421 55.817 41.702 56.8074 38.488C57.9463 38.1855 58.9624 36.6641 59.2137 34.7231C59.4877 32.6393 58.7911 30.7956 57.6323 30.3502C57.0501 22.0982 52.9513 15.7161 44.3367 15.7161C44.3256 15.7161 44.3138 15.7161 44.3026 15.7161C44.2941 15.7161 44.2853 15.7161 44.274 15.7161C35.6568 15.7161 31.5578 22.0983 30.9784 30.3502C29.8138 30.7956 29.1202 32.6393 29.3942 34.7231C29.6482 36.6641 30.6643 38.1855 31.8002 38.488C32.7936 41.702 34.5577 44.4394 36.8069 46.3404C36.9526 46.6771 38.5367 51.2926 35.4083 53.3193C31.4379 55.894 23.0146 56.4989 22.1926 62.122C21.4904 66.8802 17.2316 68.9924 44.3024 69.1039C71.376 68.9924 67.117 66.8802 66.4178 62.122C65.596 56.499 57.17 55.8939 53.2025 53.3193Z" fill-rule="nonzero" fill="#000000" fill-opacity="0.680000"/>
</svg>
